<svg id="图层_1" data-name="图层 1" xmlns="http://www.w3.org/2000/svg" xmlns:xlink="http://www.w3.org/1999/xlink" viewBox="0 0 523.47 452.98"><defs><style>.cls-1{fill:url(#linear-gradient);}.cls-2{fill:url(#linear-gradient-2);}.cls-3{fill:url(#linear-gradient-3);}.cls-4{fill:url(#linear-gradient-4);}.cls-5{fill:url(#linear-gradient-5);}.cls-6{fill:url(#linear-gradient-6);}.cls-7{fill:url(#linear-gradient-7);}.cls-8{fill:url(#linear-gradient-8);}.cls-9{fill:url(#linear-gradient-9);}.cls-10,.cls-11{fill:#295e9f;}.cls-11{opacity:0.63;}</style><linearGradient id="linear-gradient" x1="266.72" y1="50.24" x2="266.72" y2="402.91" gradientUnits="userSpaceOnUse"><stop offset="0" stop-color="#888988"/><stop offset="0.02" stop-color="#979897"/><stop offset="0.07" stop-color="#b7b7b7"/><stop offset="0.13" stop-color="#d1d2d1"/><stop offset="0.19" stop-color="#e6e6e6"/><stop offset="0.26" stop-color="#f4f4f4"/><stop offset="0.34" stop-color="#fcfcfc"/><stop offset="0.48" stop-color="#fff"/><stop offset="0.65" stop-color="#fcfcfc"/><stop offset="0.75" stop-color="#f4f4f4"/><stop offset="0.84" stop-color="#e5e5e5"/><stop offset="0.92" stop-color="#d0d0d1"/><stop offset="1" stop-color="#b6b6b7"/><stop offset="1" stop-color="#b4b4b5"/></linearGradient><linearGradient id="linear-gradient-2" x1="266.74" y1="49.54" x2="266.74" y2="403.49" xlink:href="#linear-gradient"/><linearGradient id="linear-gradient-3" x1="266.75" y1="49.8" x2="266.75" y2="403.19" xlink:href="#linear-gradient"/><linearGradient id="linear-gradient-4" x1="266.73" y1="49.62" x2="266.73" y2="403.36" xlink:href="#linear-gradient"/><linearGradient id="linear-gradient-5" x1="266.7" y1="49.66" x2="266.7" y2="403.31" xlink:href="#linear-gradient"/><linearGradient id="linear-gradient-6" x1="266.74" y1="50.01" x2="266.74" y2="403.2" xlink:href="#linear-gradient"/><linearGradient id="linear-gradient-7" x1="266.73" y1="49.8" x2="266.73" y2="403.2" xlink:href="#linear-gradient"/><linearGradient id="linear-gradient-8" x1="266.73" y1="49.77" x2="266.73" y2="403.22" xlink:href="#linear-gradient"/><linearGradient id="linear-gradient-9" x1="266.73" y1="49.67" x2="266.73" y2="403.39" xlink:href="#linear-gradient"/></defs><title>DHC logo</title><polygon class="cls-1" points="113.7 251.11 126.79 264.17 406.69 264.17 419.75 251.11 113.7 251.11"/><polygon class="cls-2" points="89.12 226.49 94.35 231.74 439.15 231.74 444.36 226.49 436.47 218.63 96.97 218.63 89.12 226.49"/><polygon class="cls-3" points="384.68 166.8 266.72 48.87 148.81 166.8 384.68 166.8"/><polygon class="cls-4" points="97.47 234.85 110.57 247.96 422.89 247.96 436 234.85 97.47 234.85"/><polygon class="cls-5" points="390.45 280.43 403.5 267.32 129.91 267.32 143.01 280.43 390.45 280.43"/><polygon class="cls-6" points="146.16 283.61 266.72 404.1 387.32 283.61 146.16 283.61"/><polygon class="cls-7" points="145.67 169.94 132.58 183.04 400.89 183.04 387.79 169.94 145.67 169.94"/><polygon class="cls-8" points="113.21 202.39 100.1 215.49 433.36 215.49 420.28 202.39 113.21 202.39"/><polygon class="cls-9" points="129.43 186.17 116.33 199.27 417.13 199.27 404.05 186.17 129.43 186.17"/><path class="cls-10" d="M83.91,192.16h6.23c14.64,0,19.93.63,21.81,1,3.56.71,6.18,1.9,8,3.66a9.41,9.41,0,0,1,1.79,2.45h48.08c-.11-.8-.24-1.6-.36-2.37a56.35,56.35,0,0,0-3.25-10.73H40l-2.3,13.1H82.45Z"/><path class="cls-10" d="M158.2,173.66c-1.11-1.25-2.33-2.48-3.6-3.71H42.87L40.57,183H164.64A45.31,45.31,0,0,0,158.2,173.66Z"/><path class="cls-10" d="M170.16,202.39h-47c.26.89.49,1.84.68,2.84a37.21,37.21,0,0,1,0,10.25H170.1A74.59,74.59,0,0,0,170.16,202.39Z"/><polygon class="cls-10" points="81.84 202.39 37.18 202.39 34.91 215.49 79.11 215.49 81.84 202.39"/><path class="cls-10" d="M119.78,234.85a53.9,53.9,0,0,1-4.46,11.09c-.4.71-.81,1.4-1.22,2h48.06a101.75,101.75,0,0,0,4.47-13.11Z"/><path class="cls-10" d="M168.15,228.57c.71-3.44,1.22-6.76,1.6-9.95H123.37c-.26,1.91-.65,4-1.13,6.38s-1,4.62-1.57,6.73h46.76Z"/><path class="cls-10" d="M157.54,257c1.09-1.87,2.18-3.82,3.16-5.87H112a20.78,20.78,0,0,1-4.39,4.3,27,27,0,0,1-9.73,3.91c-2.12.42-6.64.91-15.89.91H70l1.84-9.12H28.71l-2.27,13.07h126.2A83,83,0,0,0,157.54,257Z"/><path class="cls-10" d="M150.22,267.32H25.87l-2.25,13.1H136.43A77.49,77.49,0,0,0,150.22,267.32Z"/><path class="cls-10" d="M21,295.18H81.6c11.68,0,21-.95,28.68-2.92a84.31,84.31,0,0,0,21.45-8.65H23Z"/><path class="cls-10" d="M134.77,157.92c-6.83-1.81-16.39-2.7-29.32-2.7h-60l-2,11.58H151.16A43.75,43.75,0,0,0,134.77,157.92Z"/><polygon class="cls-10" points="75.14 234.85 31.56 234.85 29.29 247.96 72.47 247.96 75.14 234.85"/><polygon class="cls-10" points="78.49 218.63 34.35 218.63 32.09 231.74 75.83 231.74 78.49 218.63"/><polygon class="cls-10" points="233.14 251.11 185.79 251.11 183.47 264.17 230.77 264.17 233.14 251.11"/><polygon class="cls-10" points="338.89 183.04 341.23 169.94 296.13 169.94 293.86 183.04 338.89 183.04"/><polygon class="cls-10" points="178.04 295.18 225.01 295.18 227.18 283.61 180.12 283.61 178.04 295.18"/><polygon class="cls-10" points="343.79 155.22 298.7 155.22 296.68 166.8 341.74 166.8 343.79 155.22"/><polygon class="cls-10" points="245 186.17 197.2 186.17 194.87 199.27 242.21 199.27 245 186.17"/><polygon class="cls-10" points="251.52 155.22 202.61 155.22 200.54 166.8 249.09 166.8 251.52 155.22"/><polygon class="cls-10" points="278.73 264.17 324.63 264.17 326.94 251.11 280.7 251.11 278.73 264.17"/><polygon class="cls-10" points="291.02 199.27 336.03 199.27 338.36 186.17 293.33 186.17 291.02 199.27"/><polygon class="cls-10" points="182.91 267.32 180.61 280.43 227.77 280.43 230.19 267.32 182.91 267.32"/><polygon class="cls-10" points="289.91 205.95 240.79 205.95 241.56 202.39 194.34 202.39 191.99 215.49 333.21 215.49 335.49 202.39 290.51 202.39 289.91 205.95"/><polygon class="cls-10" points="245.65 183.04 248.41 169.94 200.01 169.94 197.74 183.04 245.65 183.04"/><polygon class="cls-10" points="274.13 295.18 319.24 295.18 321.25 283.61 275.87 283.61 274.13 295.18"/><polygon class="cls-10" points="278.32 267.32 276.31 280.43 321.8 280.43 324.14 267.32 278.32 267.32"/><polygon class="cls-10" points="186.36 247.96 233.73 247.96 235.04 240.97 282.19 240.97 281.18 247.96 327.51 247.96 329.8 234.85 188.67 234.85 186.36 247.96"/><polygon class="cls-10" points="189.15 231.74 330.38 231.74 332.63 218.63 191.45 218.63 189.15 231.74"/><path class="cls-10" d="M355.32,226.05c-.38,1.91-.71,3.81-1,5.69h46.49c.24-1.63.53-3.32.89-5.12.59-2.82,1.28-5.45,2.08-8H357.14C356.49,221,355.82,223.53,355.32,226.05Z"/><path class="cls-10" d="M386.31,174a80.19,80.19,0,0,0-9.86,9.08H498.28a36.43,36.43,0,0,0-7.84-12.16c-.34-.32-.66-.59-1-.93H391.94C390,171.24,388.14,172.53,386.31,174Z"/><path class="cls-10" d="M364.89,199.27h50c.29-.26.6-.59,1-.86,6.46-5.32,13.79-9.87,22.35-9.87,5.64,0,9.9,3.14,13.07,5.63,3,2.45,2,2.17,4.9,4.72l29.24.38h17a64,64,0,0,0-3-13.1H373.73A83.89,83.89,0,0,0,364.89,199.27Z"/><path class="cls-10" d="M358.08,215.49h46.78A45.6,45.6,0,0,1,412,202.39H363.27A89.77,89.77,0,0,0,358.08,215.49Z"/><path class="cls-10" d="M416.11,297.27c17,0,32.1-3.68,44.8-11,1.42-.83,2.84-1.76,4.27-2.67H372.05C383.19,292.67,397.93,297.27,416.11,297.27Z"/><path class="cls-10" d="M357.43,264.17H485.22a92.72,92.72,0,0,0,8.24-12.92l-47.37.18c-5.21,13-20,10.43-25.92,10.43-7.76,0-13.07-2.17-16.76-6.84a15.54,15.54,0,0,1-2-3.91H354A53,53,0,0,0,357.43,264.17Z"/><path class="cls-10" d="M365.91,277.67c.82,1,1.72,1.87,2.61,2.75H469.41a93,93,0,0,0,13.31-13.1H358.89A46.27,46.27,0,0,0,365.91,277.67Z"/><path class="cls-10" d="M353.68,248h46.85a46.07,46.07,0,0,1-.12-13.11H353.92A78.09,78.09,0,0,0,353.68,248Z"/><path class="cls-10" d="M444.11,155c-17.43,0-33.21,4-47,11.79H485.7C475.26,159,461.34,155,444.11,155Z"/><path class="cls-10" d="M502.47,199.51a.44.44,0,0,0-.07-.24h-17Z"/><path class="cls-11" d="M502.47,199.51a.44.44,0,0,0-.07-.24h-17Z"/></svg>